<?xml version="1.0" encoding="utf-8"?>
<!-- Generator: Adobe Illustrator 16.0.0, SVG Export Plug-In . SVG Version: 6.00 Build 0)  -->
<!DOCTYPE svg PUBLIC "-//W3C//DTD SVG 1.1//EN" "http://www.w3.org/Graphics/SVG/1.1/DTD/svg11.dtd">
<svg version="1.1" id="Layer_1" xmlns="http://www.w3.org/2000/svg" xmlns:xlink="http://www.w3.org/1999/xlink" x="0px" y="0px"
	 width="64px" height="64px" viewBox="0 0 64 64" enable-background="new 0 0 64 64" xml:space="preserve">
<g>
	<path fill="#818285" d="M-130.139,174.396c-0.641-2.391-2.615-4.013-5.08-4.021c-7.301-0.028-14.602-0.008-21.902-0.009
		c-1.971-0.001-3.326,1.024-4.395,2.705c-2.656-1.622-4.852-0.471-6.891,1.244c-2.578,2.169-5.119-4.565-7.652-2.343
		c-0.35,0.308-0.572,0.761-0.854,1.147l-0.004,27.881h0.52c0.006,0.001,0.01,0.008,0.01,0.008c0.852,0,1.857-0.003,2.924-0.008
		h0.051l0,0c2.783-0.014,6.016-0.049,8.215-0.131c1.342-0.051,2.672-0.379,4.057-0.588c1.328,1.977,1.898,2.152,4.982,1.466
		c1.906,3.177,4.154,3.046,7.303-0.49c0.871,0.757,1.982,1.219,3.031,0.78c1.078-0.448,2.26-1.121,2.902-2.041
		c1.322-1.89,2.318-4.011,3.562-6.241h2.631c4.107,0,5.357-0.841,6.801-4.583v-14.2C-130,174.782-130.086,174.594-130.139,174.396z
		 M-156.932,173.897c1.703-0.026,3.406-0.009,5.111-0.009c5.352,0,10.703-0.003,16.057,0.003c1.416,0.002,1.883,0.368,2.244,1.826
		h-25.254C-158.66,174.46-158.125,173.918-156.932,173.897z M-164.945,197.319c-2.537,0.093-5.078,0.102-7.615,0.136
		c-0.234,0.003-0.469-0.066-0.789-0.114v-5.029c0-2.75-0.016-5.5,0.02-8.249c0.006-0.4,0.154-0.928,0.434-1.176
		c2.234-1.99,4.504-3.938,6.787-5.873c1.033-0.874,2.117-1.692,3.662-0.51c0,2.935,0.008,6.06-0.02,9.186
		c-0.002,0.212-0.232,0.479-0.43,0.618c-0.367,0.258-0.791,0.434-1.186,0.655c-1.184,0.664-1.568,1.59-1.068,2.555
		c0.516,0.994,1.529,1.189,2.795,0.522c1.938-1.018,3.846-2.094,5.812-3.055c1.303-0.637,2.67-1.152,4.037-1.635
		c0.318-0.113,0.971,0.007,1.096,0.23c0.174,0.31,0.15,0.929-0.061,1.219c-0.631,0.864-1.344,1.683-2.113,2.429
		c-1.971,1.914-4.02,3.748-5.979,5.672C-161.074,196.385-162.846,197.242-164.945,197.319z M-155.99,198.571
		c-0.428,0.62-1.371,0.902-2.117,1.269c-0.168,0.081-0.664-0.098-0.689-0.221c-0.053-0.264,0.008-0.667,0.189-0.843
		c1.461-1.425,2.963-2.814,4.449-4.214l0.133,0.123C-154.662,195.991-155.174,197.385-155.99,198.571z M-151.695,200.487
		c-0.273,0.435-1.283,0.898-1.592,0.721c-0.656-0.377-0.447-1.189-0.131-1.854c0.828-1.749,1.635-3.507,2.479-5.246
		c0.082-0.166,0.352-0.325,0.541-0.335c0.748-0.039,1.498-0.016,2.57-0.016C-149.186,196.154-150.369,198.365-151.695,200.487z
		 M-145.242,198.74c-0.281,0.412-1.021,0.512-1.551,0.753c-0.039-0.644-0.27-1.352-0.082-1.919c0.389-1.172,0.982-2.281,1.541-3.39
		c0.105-0.206,0.447-0.387,0.691-0.409c0.688-0.053,1.381-0.019,2.414-0.019C-143.312,195.583-144.203,197.213-145.242,198.74z
		 M-133.545,188.571c-0.035,0.957-0.732,1.618-1.732,1.624c-4.65,0.032-9.303,0.015-14.021,0.015
		c0.523-1.015,1.084-1.862,1.416-2.79c1.078-3.022-1.422-6.15-4.592-5.642c-1.547,0.25-3.031,0.919-4.527,1.449
		c-0.58,0.208-1.109,0.557-1.889,0.958c0-0.997-0.051-1.841,0.039-2.67c0.02-0.175,0.561-0.416,0.861-0.418
		c3.197-0.031,6.395-0.019,9.592-0.019h13.557h1.326C-133.516,183.662-133.459,186.117-133.545,188.571z"/>
</g>
<g>
	<path fill-rule="evenodd" clip-rule="evenodd" fill="#818285" d="M-132.344,410.924c0,3.992,0,7.77,0,11.547
		c0,2.32-0.061,4.643,0.025,6.959c0.045,1.17-0.322,1.764-1.469,2.113c-2.682,0.82-5.27,2.098-8.004,2.564
		c-2.496,0.428-5.141,0.152-7.707-0.021c-7.289-0.492-14.572-1.088-21.857-1.646c-0.27-0.021-0.535-0.1-1.037-0.197
		c0-6.586,0-13.154,0-19.887c-2.377,0-4.514,0-7.234,0c2.486-3.395,4.682-6.422,6.93-9.406c0.199-0.264,0.748-0.328,1.145-0.363
		c8.887-0.787,17.766-1.945,26.666-2.158c4.076-0.096,8.199,1.67,12.295,2.615c0.238,0.055,0.48,0.301,0.623,0.521
		c1.523,2.332,3.025,4.678,4.752,7.359C-129.115,410.924-130.611,410.924-132.344,410.924z M-148.135,402.426
		c-7.824,0.627-15.025,1.199-22.227,1.791c-0.326,0.027-0.764,0.137-0.934,0.367c-1.297,1.76-2.543,3.559-4.113,5.783
		c7.777-0.514,14.918-0.979,22.055-1.479c0.367-0.025,0.836-0.271,1.051-0.566C-150.986,406.533-149.73,404.699-148.135,402.426z
		 M-141.959,402.443c0.994,1.703,1.627,2.863,2.334,3.977c0.516,0.814,1.018,2.107,1.715,2.248c2.389,0.482,4.859,0.549,7.312,0.775
		C-132.082,403.287-137.18,403.762-141.959,402.443z"/>
</g>
<g>
	<path fill-rule="evenodd" clip-rule="evenodd" fill="#818285" d="M-141.629,102.761c0.277,0.799,0.777,1.594,0.795,2.396
		c0.08,3.988-0.008,7.979,0.051,11.969c0.027,1.732-0.656,2.427-2.402,2.408c-5.273-0.059-10.549-0.069-15.822,0.005
		c-1.895,0.026-2.506-0.819-2.482-2.572c0.049-3.853-0.051-7.711,0.072-11.561c0.027-0.892,0.705-1.764,1.082-2.645
		C-154.1,102.761-147.863,102.761-141.629,102.761z"/>
	<path fill-rule="evenodd" clip-rule="evenodd" fill="#818285" d="M-179.449,116.587c1.439-0.877,2.885-1.744,4.314-2.639
		c0.434-0.272,0.906-0.558,1.209-0.954c0.488-0.642,0.963-1.336,1.25-2.083c1.359-3.564,3.99-4.579,7.584-4.151
		c1.459,0.173,2.01,0.618,1.99,2.099c-0.051,3.926,0.018,7.854,0.045,11.779c0,0.057,0.066,0.11,0.234,0.365
		c3.072,0,6.287,0,9.586,0c-0.525,1.442-0.975,2.684-1.471,4.047c-3.074,0-6.229,0-9.375,0c-0.959-3.641-2.518-5.193-5.221-5.228
		c-2.805-0.037-4.283,1.397-5.564,5.793c-1.518-0.431-3.051-0.865-4.582-1.301C-179.449,121.738-179.449,119.163-179.449,116.587z
		 M-171.613,113.612c1.928,0,3.33,0.022,4.73-0.014c0.453-0.011,1.281-0.149,1.291-0.276c0.1-1.367,0.068-2.742,0.076-4.116
		c-1.297,0.169-2.859-0.048-3.818,0.611C-170.318,110.493-170.717,112.026-171.613,113.612z"/>
	<path fill-rule="evenodd" clip-rule="evenodd" fill="#818285" d="M-150.576,128.381c-0.254-0.201-0.508-0.403-0.764-0.604
		c-1.938-1.512-2.219-3.79-0.664-5.426c1.395-1.468,3.846-1.475,5.242-0.015c1.574,1.645,1.314,3.898-0.625,5.431
		c-0.254,0.2-0.5,0.409-0.75,0.613C-148.949,128.381-149.764,128.381-150.576,128.381z"/>
	<path fill-rule="evenodd" clip-rule="evenodd" fill="#818285" d="M-170.502,128.381c-0.322-0.231-0.65-0.449-0.963-0.693
		c-1.795-1.417-2.043-3.713-0.578-5.294c1.391-1.501,3.787-1.543,5.232-0.092c1.518,1.527,1.352,3.826-0.387,5.316
		c-0.289,0.251-0.576,0.51-0.865,0.763C-168.875,128.381-169.689,128.381-170.502,128.381z"/>
	<path fill-rule="evenodd" clip-rule="evenodd" fill="#818285" d="M-127.395,108.454c-1.637,0.188-3.27,0.458-4.91,0.543
		c-1.742,0.091-3.5,0.078-5.238-0.051c-0.428-0.033-0.914-0.64-1.152-1.101c-0.088-0.167,0.475-0.978,0.73-0.972
		c3.525,0.066,7.047,0.225,10.57,0.36C-127.395,107.64-127.395,108.047-127.395,108.454z"/>
	<path fill-rule="evenodd" clip-rule="evenodd" fill="#818285" d="M-133.865,110.906c1.145,0,2.311-0.121,3.428,0.057
		c0.492,0.078,0.885,0.767,1.322,1.179c-0.418,0.371-0.824,1.042-1.26,1.062c-2.355,0.106-4.719,0.118-7.07-0.005
		c-0.457-0.023-0.875-0.786-1.311-1.208c0.484-0.362,0.936-0.962,1.459-1.037C-136.174,110.793-135.012,110.903-133.865,110.906z"/>
	<path fill-rule="evenodd" clip-rule="evenodd" fill="#818285" d="M-134.818,114.929c0.875,0,1.777-0.125,2.615,0.051
		c0.439,0.092,0.959,0.654,1.084,1.104c0.068,0.254-0.574,1.002-0.926,1.023c-1.875,0.108-3.766,0.126-5.639,0.005
		c-0.379-0.024-0.711-0.779-1.064-1.195c0.436-0.333,0.834-0.863,1.312-0.952c0.848-0.156,1.744-0.043,2.617-0.043
		C-134.818,114.923-134.818,114.926-134.818,114.929z"/>
	<path fill-rule="evenodd" clip-rule="evenodd" fill="#818285" d="M-143.959,125.222c-0.559-1.542-1.008-2.788-1.582-4.381
		c1.574,0.274,3.098,0.274,4.297,0.896c0.412,0.214,0.357,2.194-0.125,2.967C-141.703,125.238-143.137,125.086-143.959,125.222z"/>
</g>
<g>
	<g id="iPWpQ9_1_">
		<g>
			<path fill-rule="evenodd" clip-rule="evenodd" fill="#818285" d="M-152.772,266.822c4.039,0.307,8.079,0.604,12.117,0.922
				c1.077,0.084,1.94,0.088,2.634-1.102c0.861-1.479,2.834-1.895,4.38-1.186c1.554,0.711,2.286,1.965,2.169,3.686
				c-0.113,1.67-1.238,2.938-2.924,3.303c-1.594,0.344-3.346-0.355-3.955-1.914c-0.453-1.156-1.085-1.404-2.207-1.469
				c-3.758-0.211-7.51-0.525-11.258-0.869c-0.465-0.041-0.893-0.486-1.338-0.744C-153.027,267.24-152.9,267.031-152.772,266.822z"/>
			<path fill-rule="evenodd" clip-rule="evenodd" fill="#818285" d="M-157.539,267.562c-0.416,0.369-0.777,0.949-1.256,1.072
				c-2.558,0.662-5.162,1.146-7.709,1.844c-0.641,0.176-1.371,0.793-1.647,1.396c-0.839,1.828-2.067,2.736-3.948,2.582
				c-1.586-0.131-2.889-1.277-3.199-2.818c-0.353-1.744,0.418-3.396,1.935-4.146c1.544-0.766,3.296-0.504,4.44,0.969
				c0.708,0.912,1.398,0.848,2.287,0.639c2.907-0.684,5.816-1.352,8.726-2.025C-157.787,267.238-157.664,267.4-157.539,267.562z"/>
			<path fill-rule="evenodd" clip-rule="evenodd" fill="#818285" d="M-154.801,269.834c0.472-0.246,0.812-0.424,1.194-0.623
				c1.715,2.41,3.339,4.791,5.091,7.072c0.355,0.461,1.199,0.779,1.812,0.77c1.778-0.027,3.285,0.822,3.896,2.439
				c0.587,1.555,0.094,3.244-1.238,4.246c-1.254,0.941-3.202,0.938-4.449-0.008c-1.326-1.006-1.936-2.887-1.1-4.416
				c0.614-1.123,0.258-1.814-0.355-2.658C-151.54,274.469-153.088,272.25-154.801,269.834z"/>
		</g>
	</g>
	<path fill="#818285" d="M-155.504,266.279c0,0,7.78-16.418,7.78-20.891c0-4.461-3.605-8.082-8.078-8.082
		c-4.456,0-8.078,3.621-8.078,8.082C-163.88,249.861-155.504,266.279-155.504,266.279"/>
</g>
<g>
	<path fill-rule="evenodd" clip-rule="evenodd" fill="#818285" d="M31.998,9.972C19.834,9.972,9.973,19.834,9.973,32
		c0,12.165,9.861,22.027,22.025,22.027c12.166,0,22.029-9.862,22.029-22.027C54.027,19.834,44.164,9.972,31.998,9.972z M32,48.793
		c-9.275,0-16.795-7.519-16.795-16.792c0-9.276,7.52-16.794,16.795-16.794c9.273,0,16.793,7.518,16.793,16.794
		C48.793,41.274,41.273,48.793,32,48.793z"/>
	<polygon fill-rule="evenodd" clip-rule="evenodd" fill="#818285" points="22.582,32.257 30.873,42.581 42.695,23.044 30.307,35.56 
			"/>
</g>
<g>
	<path fill-rule="evenodd" clip-rule="evenodd" fill="#818285" d="M-153.424,316.64c-12.164,0-22.025,9.862-22.025,22.028
		c0,12.164,9.861,22.027,22.025,22.027c12.166,0,22.029-9.863,22.029-22.027C-131.395,326.502-141.258,316.64-153.424,316.64z
		 M-153.422,355.461c-9.275,0-16.795-7.52-16.795-16.793c0-9.277,7.52-16.795,16.795-16.795c9.273,0,16.793,7.518,16.793,16.795
		C-136.629,347.941-144.148,355.461-153.422,355.461z"/>
	<circle fill-rule="evenodd" clip-rule="evenodd" fill="#818285" cx="-153.844" cy="349.03" r="4.5"/>
	<path fill="#818285" d="M-153.893,323.029c0,0-5.232,11.049-5.232,14.057c0,3.01,2.426,5.439,5.436,5.439
		c3.004,0,5.439-2.43,5.439-5.439C-148.25,334.078-153.893,323.029-153.893,323.029"/>
</g>
</svg>
